<svg xmlns="http://www.w3.org/2000/svg" viewBox="0 0 512 512" role="img">
  <defs>
    <linearGradient id="bg" x1="92" x2="420" y1="72" y2="442" gradientUnits="userSpaceOnUse">
      <stop stop-color="#5ce4d0"/>
      <stop offset=".48" stop-color="#88d7ff"/>
      <stop offset="1" stop-color="#ffb87a"/>
    </linearGradient>
    <linearGradient id="ink" x1="152" x2="360" y1="142" y2="370" gradientUnits="userSpaceOnUse">
      <stop stop-color="#ffffff"/>
      <stop offset="1" stop-color="#d7e7ef"/>
    </linearGradient>
    <filter id="shadow" x="-20%" y="-20%" width="140%" height="140%">
      <feDropShadow dx="0" dy="20" stdDeviation="22" flood-color="#000000" flood-opacity=".38"/>
    </filter>
  </defs>
  <rect width="512" height="512" rx="108" fill="#080b10"/>
  <path d="M102 270c0-97 64-170 154-170s154 73 154 170c0 30-7 57-20 81-45 16-89 25-134 25s-89-9-134-25a171 171 0 0 1-20-81Z" fill="url(#bg)" filter="url(#shadow)"/>
  <path d="M154 254c28-42 62-72 102-91 40 19 74 49 102 91-29 48-63 82-102 101-39-19-73-53-102-101Z" fill="#0b1218" opacity=".78"/>
  <path d="M204 254c15-23 32-40 52-51 20 11 37 28 52 51-16 25-33 43-52 54-19-11-36-29-52-54Z" fill="url(#ink)"/>
  <path d="M152 390h208" fill="none" stroke="#d7e7ef" stroke-linecap="round" stroke-width="28"/>
  <path d="M180 430h152" fill="none" stroke="#5ce4d0" stroke-linecap="round" stroke-width="18"/>
</svg>
